{"title":"Horror Story 2013 Hindi MoviePreDvDRip XviDMP3- Team IcFG GOPI S","uid":8998335,"size":340087467,"categoryP":"video","categoryS":"movies","magnet":"?xt=urn:btih:b372696c227dd3cb4d03db4130845d0b19555de6&amp;dn=Horror+Story+2013+Hindi+MoviePreDvDRip+XviDMP3-+Team+IcFG+GOPI+S&amp;tr=udp%3A%2F%2Ftracker.openbittorrent.com%3A80&amp;tr=udp%3A%2F%2Fopen.demonii.com%3A1337&amp;tr=udp%3A%2F%2Ftracker.coppersurfer.tk%3A6969&amp;tr=udp%3A%2F%2Fexodus.desync.com%3A6969","seeders":1,"leechers":0,"uploader":"jatt13","files":6,"time":1380913803,"description":"[img]http://imageshack.us/a/img17/320/sntb.jpg[/img]\n[img]http://imageshack.us/a/img12/9361/mym4.png[/img]\n[img]http://imageshack.us/a/img163/9316/l520.png[/img]\n[img]http://imageshack.us/a/img543/813/79uz.png[/img]\n[img]http://imageshack.us/a/img163/2858/oqsx.png[/img]\nVideo\nID                             : 1\nFormat                         : MPEG-4 Visual\nFormat profile                 : Advanced Simple@L5\nFormat settings, BVOP          : Yes\nFormat settings, QPel          : No\nFormat settings, GMC           : No warppoints\nFormat settings, Matrix        : Default (H.263)\nCodec ID                       : V_MS/VFW/FOURCC / XVID\nCodec ID/Hint                  : XviD\nDuration                       : 1h 31mn\nBit rate                       : 404 Kbps\nWidth                          : 624 pixels\nHeight                         : 272 pixels\nDisplay aspect ratio           : 2.25:1\nFrame rate mode                : Constant\nFrame rate                     : 23.976 fps\nColor space                    : YUV\nChroma subsampling             : 4:2:0\nBit depth                      : 8 bits\nScan type                      : Progressive\nCompression mode               : Lossy\nBits/(Pixel*Frame)             : 0.099\nStream size                    : 265 MiB (82%)\nWriting library                : XviD 1.2.1 (UTC 2008-12-04)\nDefault                        : Yes\nForced                         : No\n\nAudio\nID                             : 2\nFormat                         : MPEG Audio\nFormat version                 : Version 1\nFormat profile                 : Layer 3\nMode                           : Joint stereo\nMode extension                 : MS Stereo\nCodec ID                       : A_MPEG/L3\nCodec ID/Hint                  : MP3\nDuration                       : 1h 31mn\nBit rate mode                  : Constant\nBit rate                       : 80.0 Kbps\nChannel count                  : 2 channels\nSampling rate                  : 32.0 KHz\nCompression mode               : Lossy\nStream size                    : 52.5 MiB (16%)\nWriting library                : LAME3.99r\nEncoding settings              : -m j -V 4 -q 2 -lowpass 13.5 -b 80\nDefault                        : Yes\nForced                         : No\n","torrent":{"xt":"urn:btih:b372696c227dd3cb4d03db4130845d0b19555de6","amp;dn":"Horror+Story+2013+Hindi+MoviePreDvDRip+XviDMP3-+Team+IcFG+GOPI+S","amp;tr":["udp%3A%2F%2Ftracker.openbittorrent.com%3A80","udp%3A%2F%2Fopen.demonii.com%3A1337","udp%3A%2F%2Ftracker.coppersurfer.tk%3A6969","udp%3A%2F%2Fexodus.desync.com%3A6969"],"infoHash":"b372696c227dd3cb4d03db4130845d0b19555de6","infoHashBuffer":{"type":"Buffer","data":[179,114,105,108,34,125,211,203,77,3,219,65,48,132,93,11,25,85,93,230]},"announce":[],"urlList":[]}}